<?xml version="1.0" encoding="utf-8"?>
<!-- Generator: Adobe Illustrator 24.2.3, SVG Export Plug-In . SVG Version: 6.00 Build 0)  -->
<svg version="1.1" id="Layer_1" xmlns="http://www.w3.org/2000/svg" xmlns:xlink="http://www.w3.org/1999/xlink" x="0px" y="0px" viewBox="0 0 1047 360" style="enable-background: new 0 0 1047 360" xml:space="preserve">
<style type="text/css">
	.st0{
			fill: #763857;
			height: 40px;
		}

	.f1{
	animation: float1 20s ease-in-out infinite;
	animation-delay: 0s;
	}
	.f2{
	animation: float1 20s ease-in-out infinite;
	animation-delay: 0.5s;
	}
	.f3{
	animation: float1 20s ease-in-out infinite;
	animation-delay: 1s;
	}
	.f4{
	animation: float1 20s ease-in-out infinite;
	animation-delay: 1.5s;
	}
	.f5{
	animation: float1 20s ease-in-out infinite;
	animation-delay: 2s;
	}

	@keyframes float1 {
		0% {
			transform: translatey(0px);
		}
		3% {
			transform: translatey(-20px);
		}
		9% {
			transform: translatey(20px);
		}
		12% {
			transform: translatey(0px);
		}
	}

</style>
<g>

	<!-- {/* BRACKET 1 */} -->
	<path className="st0" d="M164.4,316.6H83.5v-33.9v0v-71.8l37.6,0.4c4.4,0.1,8-3.5,8-7.9l0-5.7c0-4.4-3.5-7.9-7.9-7.9l-37.7-0.1V149 v-24.9V70.7V37.3h14.6h26.8h39.4V22.6h-146V346h146V316.6z"/>

	<!-- {/* S */} -->
	<path className="st0 f1" d="M268.8,116.7H252c-6.5,0-11.8-5.3-11.8-11.8l-0.1-23.8c0-6-4.9-10.8-10.9-10.8l0,0h0 c-6.5,0-11.8,5.3-11.8,11.8v28.5c0,6.5-5.3,11.8-11.8,11.8h-16.8h-16.6h-12c-6.5,0-11.8,5.3-11.8,11.8v0.7 c0,6.5,5.3,11.8,11.8,11.8h12h16.6h16.8c6.5,0,11.8,5.3,11.8,11.8v107.4c0,6.5,5.3,11.8,11.8,11.8h10.9v-0.5h28.7 c6.5,0,11.8-5.3,11.8-11.8V128.5C280.6,122,275.3,116.7,268.8,116.7z"/>
	<!-- {/* T */} -->
	<path className="st0 f2" d="M371,81.9v25.6c0,5.3-4.3,9.6-9.6,9.6H343c-7,0-12.6,5.6-12.6,12.6v137.2c0,6.1,4.9,11,11,11h37.5 c8.2,0,14.8-6.6,14.8-14.8V81.9c0-6.3-5.1-11.3-11.3-11.3h0C376.1,70.5,371,75.6,371,81.9z"/>
	<!-- {/* L1 */} -->
	<path className="st0 f3" d="M446.7,80.9V221c0,5.7,4.6,10.4,10.4,10.4h40.6c5.7,0,10.4,4.6,10.4,10.4v25.8c0,5.7,4.6,10.4,10.4,10.4h1.4 c5.7,0,10.4-4.6,10.4-10.4V80.9c0-5.7-4.6-10.4-10.4-10.4h-62.8C451.3,70.5,446.7,75.2,446.7,80.9z"/>
	<!-- {/* L2 */} -->
	<path className="st0 f4" d="M583.1,80.9V221c0,5.7,4.6,10.4,10.4,10.4h40.6c5.7,0,10.4,4.6,10.4,10.4v25.8c0,5.7,4.6,10.4,10.4,10.4h0 c5.7,0,10.4-4.6,10.4-10.4V80.9c0-5.7-4.6-10.4-10.4-10.4h-61.4C587.8,70.5,583.1,75.2,583.1,80.9z"/>
	<!-- {/* N */} -->
	<path className="st0 f5" d="M791.4,192.1l-1.9-109.2c-0.1-6.9-5.7-12.4-12.6-12.4h-47.5c-8.1,0-13.1,8.9-8.8,15.8l66.7,107
		C788.5,195.3,791.5,194.4,791.4,192.1z"/>
	<path className="st0 f5" d="M714.7,165l1.1,99c0.1,7.7,6.3,13.9,14,13.9h45.6c8.1,0,13.1-9,8.8-15.9l-62.7-99
		C719.5,159.8,714.6,161.3,714.7,165z"/>
	
	<!-- {/* semicolon */} -->
	<circle className="st0" cx="996.1" cy="142" r="28.9"/>
	<path className="st0" d="M1025,245.1c0-15.9-12.9-28.9-28.9-28.9s-28.9,12.9-28.9,28.9c0,14.6,10.8,26.6,24.8,28.6l0,0 c1,19.7-13.7,29.1-13.7,29.1c35.2-19.2,42.1-42.1,42.1-42.1l0,0C1023.3,256.2,1025,250.9,1025,245.1z"/>

	<!-- {/* BRACKET 2 */} -->
	<polygon className="st0" points="864,22.6 776.1,22.6 776.1,37.3 786.6,37.3 797,37.3 811.2,37.3 864,37.3 864,316.6 776.1,316.6 
		776.1,346 933,346 933,22.6 		"/>
</g>
</svg>
