<?xml version="1.0" encoding="utf-8"?>
<!-- Generator: Adobe Illustrator 24.2.3, SVG Export Plug-In . SVG Version: 6.00 Build 0)  -->
<svg version="1.1" id="Layer_1" xmlns="http://www.w3.org/2000/svg" xmlns:xlink="http://www.w3.org/1999/xlink" x="0px" y="0px"
	 viewBox="0 0 967 277" style="enable-background:new 0 0 967 277;" xml:space="preserve">
<style type="text/css">
	.st0{fill:url(#SVGID_1_);}
	.st1{fill:#773858;}
	.st2{fill:url(#SVGID_2_);}
	.st3{fill:url(#SVGID_3_);}
	.st4{fill:url(#SVGID_4_);}
	.st5{fill:url(#SVGID_5_);}
	.st6{fill:url(#SVGID_6_);}
	.st7{fill:url(#SVGID_7_);}
	.st8{fill:url(#SVGID_8_);}
	.st9{fill:url(#SVGID_9_);}
	.st10{fill:url(#SVGID_10_);}
</style>
<g>
	<linearGradient id="SVGID_1_" gradientUnits="userSpaceOnUse" x1="796.5527" y1="101.1278" x2="869.6561" y2="28.5509">
		<stop  offset="0" style="stop-color:#80FBFF"/>
		<stop  offset="0.1472" style="stop-color:#80E1FF"/>
		<stop  offset="0.4073" style="stop-color:#80B9FF"/>
		<stop  offset="0.6451" style="stop-color:#809CFF"/>
		<stop  offset="0.8504" style="stop-color:#808AFF"/>
		<stop  offset="1" style="stop-color:#8084FF"/>
	</linearGradient>
	<path className="st0" d="M849.9,157.8l-2.2-128.4c-0.1-8.1-6.7-14.6-14.8-14.6H777c-9.5,0-15.4,10.5-10.4,18.6L845,159.2
		C846.4,161.5,850,160.5,849.9,157.8z"/>
	<linearGradient id="SVGID_2_" gradientUnits="userSpaceOnUse" x1="452.0674" y1="222.2963" x2="573.2718" y2="27.6817">
		<stop  offset="0" style="stop-color:#80FBFF"/>
		<stop  offset="0.1885" style="stop-color:#80E4FF"/>
		<stop  offset="1" style="stop-color:#8084FF"/>
	</linearGradient>
	<path className="st2" d="M456.3,27v164.8c0,6.7,5.5,12.2,12.2,12.2h47.8c6.7,0,12.2,5.5,12.2,12.2v30.3c0,6.7,5.5,12.2,12.2,12.2h1.6
		c6.7,0,12.2-5.5,12.2-12.2V27c0-6.7-5.5-12.2-12.2-12.2h-73.8C461.8,14.8,456.3,20.2,456.3,27z"/>
	<linearGradient id="SVGID_3_" gradientUnits="userSpaceOnUse" x1="320.3812" y1="250.6024" x2="425.4557" y2="26.8777">
		<stop  offset="0" style="stop-color:#80FBFF"/>
		<stop  offset="0.1885" style="stop-color:#80E4FF"/>
		<stop  offset="1" style="stop-color:#8084FF"/>
	</linearGradient>
	<path className="st3" d="M372.1,28.1v30.1c0,6.2-5.1,11.3-11.3,11.3h-21.7c-8.2,0-14.8,6.6-14.8,14.8v161.4c0,7.1,5.8,12.9,12.9,12.9
		h44.1c9.6,0,17.4-7.8,17.4-17.4V28.1c0-7.4-6-13.3-13.3-13.3h0C378,14.8,372.1,20.7,372.1,28.1z"/>
	<linearGradient id="SVGID_4_" gradientUnits="userSpaceOnUse" x1="597.222" y1="232.5558" x2="725.7441" y2="37.2156">
		<stop  offset="0" style="stop-color:#80FBFF"/>
		<stop  offset="0.1885" style="stop-color:#80E4FF"/>
		<stop  offset="1" style="stop-color:#8084FF"/>
	</linearGradient>
	<path className="st4" d="M612,27v164.8c0,6.7,5.5,12.2,12.2,12.2H672c6.7,0,12.2,5.5,12.2,12.2v30.3c0,6.7,5.5,12.2,12.2,12.2h0
		c6.7,0,12.2-5.5,12.2-12.2V27c0-6.7-5.5-12.2-12.2-12.2h-72.2C617.5,14.8,612,20.2,612,27z"/>
	<linearGradient id="SVGID_5_" gradientUnits="userSpaceOnUse" x1="758.5441" y1="253.8973" x2="825.9828" y2="149.0595">
		<stop  offset="0" style="stop-color:#80FBFF"/>
		<stop  offset="0.1549" style="stop-color:#80F5FF"/>
		<stop  offset="0.3516" style="stop-color:#80E6FF"/>
		<stop  offset="0.5709" style="stop-color:#80CCFF"/>
		<stop  offset="0.8047" style="stop-color:#80A8FF"/>
		<stop  offset="1" style="stop-color:#8084FF"/>
	</linearGradient>
	<path className="st5" d="M759.6,125.8l1.3,116.4c0.1,9,7.5,16.3,16.5,16.3H831c9.6,0,15.4-10.5,10.3-18.7l-73.8-116.4
		C765.3,119.8,759.6,121.5,759.6,125.8z"/>
	<linearGradient id="SVGID_6_" gradientUnits="userSpaceOnUse" x1="137.0226" y1="244.6504" x2="290.1961" y2="21.1102">
		<stop  offset="0" style="stop-color:#80FBFF"/>
		<stop  offset="0.1885" style="stop-color:#80E4FF"/>
		<stop  offset="1" style="stop-color:#8084FF"/>
	</linearGradient>
	<path className="st6" d="M254.2,69h-19.9c-7.7,0-13.9-6.2-13.9-13.9l-0.1-28c0-7-5.7-12.7-12.8-12.7h0l0,0c-7.7,0-13.9,6.2-13.9,13.9
		v33.6c0,7.7-6.2,13.9-13.9,13.9h-19.8h-19.5h-14.1c-7.7,0-13.9,6.2-13.9,13.9v0.9c0,7.7,6.2,13.9,13.9,13.9h14.1h19.5H180
		c7.7,0,13.9,6.2,13.9,13.9v126.3c0,7.7,6.2,13.9,13.9,13.9h12.8v-0.6h33.7c7.7,0,13.9-6.2,13.9-13.9v-161
		C268.1,75.2,261.9,69,254.2,69z"/>
	<linearGradient id="SVGID_7_" gradientUnits="userSpaceOnUse" x1="8.9218" y1="244.9972" x2="119.9376" y2="32.3288">
		<stop  offset="0" style="stop-color:#80FBFF"/>
		<stop  offset="0.1885" style="stop-color:#80E4FF"/>
		<stop  offset="1" style="stop-color:#8084FF"/>
	</linearGradient>
	<path className="st7" d="M132.2,154.2h-14.1H98.6H78.8c-5.4,0-10.1-3.1-12.4-7.6v-39.5V77.8V29.4c0-8-6.4-14.4-14.4-14.5l-13.4-0.1
		c-8,0-14.5,6.5-14.5,14.5V248c0,5.9,4.7,10.6,10.6,10.6h21.2c5.9,0,10.6-4.7,10.6-10.6v-57.7c2.3-4.5,7-7.6,12.4-7.6h19.8h19.5
		h14.1c7.7,0,13.9-6.2,13.9-13.9V168C146.1,160.4,139.9,154.2,132.2,154.2z"/>
	<linearGradient id="SVGID_8_" gradientUnits="userSpaceOnUse" x1="869.4807" y1="234.5371" x2="971.7985" y2="26.2985">
		<stop  offset="0" style="stop-color:#80FBFF"/>
		<stop  offset="0.1885" style="stop-color:#80E4FF"/>
		<stop  offset="1" style="stop-color:#8084FF"/>
	</linearGradient>
	<path className="st8" d="M922.9,258.3h-10.5c-8.3,0-15.1-6.7-15.1-15.1V29.6c0-8.3,6.7-15.1,15.1-15.1h10.5c8.3,0,15.1,6.7,15.1,15.1
		v213.6C938,251.5,931.3,258.3,922.9,258.3z"/>
</g>
</svg>
